<?xml version="1.0" standalone="no"?>
<!DOCTYPE svg PUBLIC "-//W3C//DTD SVG 1.1//EN" "http://www.w3.org/Graphics/SVG/1.1/DTD/svg11.dtd" >
<svg xmlns="http://www.w3.org/2000/svg">
<metadata>
Created by FontForge 20120731 at Thu Apr  6 11:50:39 2017
 By admin
</metadata>
<defs>
<font id="iconfont" horiz-adv-x="1024" >
  <font-face 
    font-family="iconfont"
    font-weight="500"
    font-stretch="normal"
    units-per-em="1024"
    panose-1="2 0 6 3 0 0 0 0 0 0"
    ascent="896"
    descent="-128"
    x-height="792"
    bbox="0 -212 1024 896"
    underline-thickness="0"
    underline-position="0"
    unicode-range="U+0078-E74E"
  />
<missing-glyph 
 />
    <glyph glyph-name=".notdef" 
 />
    <glyph glyph-name=".notdef" 
 />
    <glyph glyph-name=".null" horiz-adv-x="0" 
 />
    <glyph glyph-name="nonmarkingreturn" horiz-adv-x="341" 
 />
    <glyph glyph-name="x" unicode="x" horiz-adv-x="1001" 
d="M281 543q-27 -1 -53 -1h-83q-18 0 -36.5 -6t-32.5 -18.5t-23 -32t-9 -45.5v-76h912v41q0 16 -0.5 30t-0.5 18q0 13 -5 29t-17 29.5t-31.5 22.5t-49.5 9h-133v-97h-438v97zM955 310v-52q0 -23 0.5 -52t0.5 -58t-10.5 -47.5t-26 -30t-33 -16t-31.5 -4.5q-14 -1 -29.5 -0.5
t-29.5 0.5h-32l-45 128h-439l-44 -128h-29h-34q-20 0 -45 1q-25 0 -41 9.5t-25.5 23t-13.5 29.5t-4 30v167h911zM163 247q-12 0 -21 -8.5t-9 -21.5t9 -21.5t21 -8.5q13 0 22 8.5t9 21.5t-9 21.5t-22 8.5zM316 123q-8 -26 -14 -48q-5 -19 -10.5 -37t-7.5 -25t-3 -15t1 -14.5
t9.5 -10.5t21.5 -4h37h67h81h80h64h36q23 0 34 12t2 38q-5 13 -9.5 30.5t-9.5 34.5q-5 19 -11 39h-368zM336 498v228q0 11 2.5 23t10 21.5t20.5 15.5t34 6h188q31 0 51.5 -14.5t20.5 -52.5v-227h-327z" />
    <glyph glyph-name="tuandui" unicode="&#xe650;" 
d="M512 -212q-139 0 -257 68.5t-186.5 186.5t-68.5 257t68.5 257t186.5 186.5t257 68.5t257 -68.5t186.5 -186.5t68.5 -257t-68.5 -257t-186.5 -186.5t-257 -68.5zM435 556q-68 0 -117 -44t-49 -110q0 -44 25 -81.5t64 -58.5q-66 -24 -109.5 -84.5t-43.5 -133.5h25
q0 80 62.5 142.5t142.5 62.5q79 0 135.5 -61.5t56.5 -143.5h26q0 73 -43.5 133.5t-110.5 84.5q40 21 65 58.5t25 81.5q0 67 -43.5 110.5t-110.5 43.5zM755 402q0 66 -49 110t-117 44v-26q55 0 98 -37.5t43 -90t-43 -90.5t-98 -38v-25q80 0 142.5 -62.5t62.5 -142.5h25
q0 73 -43.5 133.5t-109.5 84.5q39 21 64 58.5t25 81.5zM435 274q-55 0 -98 38t-43 90.5t43 90t98 37.5q54 0 91 -37t37 -90.5t-37 -91t-91 -37.5z" />
    <glyph glyph-name="yundong" unicode="&#xe607;" 
d="M555 212q-21 11 -36 26q-4 4 -5 9q-3 26 9 39q9 11 25 11q13 0 24 -5q11 -4 36 -4h6v0q51 0 92 31l-17 34q-55 -28 -95 -28q-42 0 -57 25q-8 16 -21 41q-5 5 -13 5q-5 0 -11 -2t-8.5 -3t-3.5 -2q-16 -9 -28.5 -27.5t-18 -35.5t-9 -37.5t-3.5 -28v-12.5q-3 -34 -16.5 -64
t-31 -49t-40 -35.5t-38.5 -24t-32 -12.5q8 -20 23 -55q33 8 65.5 26.5t54 37.5t40.5 41t26 31t9 14q7 11 19 5q118 -56 168 -139l41 31q-11 25 -32 51t-38.5 42.5t-41 34t-29.5 21t-13 8.5zM565.5 461q29.5 0 50 21t20.5 50.5t-20.5 50t-50 20.5t-50.5 -20.5t-21 -50
t21 -50.5t50.5 -21zM512 812q-139 0 -257 -68.5t-186.5 -186.5t-68.5 -257t68.5 -257t186.5 -186.5t257 -68.5t257 68.5t186.5 186.5t68.5 257t-68.5 257t-186.5 186.5t-257 68.5zM565.5 633q41.5 0 71 -29.5t29.5 -71t-29.5 -71t-71 -29.5t-71 29.5t-29.5 71t29.5 71
t71 29.5zM736 39l-63 -49q-6 -4 -13 -2t-10 8q-2 5 -4.5 9.5t-15 21t-27.5 32t-43 36t-61 37.5q-13 -18 -29.5 -37t-44.5 -45t-66.5 -46t-78.5 -27q-1 -1 -3 -1q-9 0 -13 9q-34 78 -34 87q0 11 11 14q7 2 17.5 5.5t35 16.5t43.5 30t35.5 46.5t18.5 64.5q0 6 0.5 15.5
t4.5 32.5t11 43t22.5 41.5t36.5 33.5q17 10 37 10q22 0 36 -16q1 -2 2 -3q15 -29 21 -41q8 -10 32 -10q37 0 94 31q5 3 11 1t9 -7l29 -58q5 -10 -2 -17q-6 -6 -16 -14t-41 -20t-63 -12v0q-4 -1 -7 -1q-31 0 -47 7q-8 3 -13 3q-3 0 -4 -1q-2 -2 -1 -11q13 -11 26 -18
q7 -4 16.5 -10.5t34 -25.5t45.5 -38.5t43 -49t33 -58.5q4 -11 -5 -17z" />
    <glyph glyph-name="lvxing" unicode="&#xe613;" 
d="M512 812q-139 0 -257 -68.5t-186.5 -186.5t-68.5 -257t68.5 -257t186.5 -186.5t257 -68.5t257 68.5t186.5 186.5t68.5 257t-68.5 257t-186.5 186.5t-257 68.5zM750 455l-125 -125q2 -29 6 -92.5t7 -111t3 -48.5q0 -18 -11 -32l-39 -43q-10 -10 -22 -10h-2q-14 1 -19 15
q-13 34 -66 179l-77 -75v-46.5v-40.5q-1 -17 -17 -37q-11 -10 -21 -10h-1q-11 0 -17 10q-1 1 -28 44.5t-33 52.5q-86 53 -101 64q-8 7 -8 17q1 10 9 19l2 2q20 17 36 17h5q6 0 32.5 -0.5t39.5 -0.5q7 0 12 1l74 76q-142 53 -180 67q-14 6 -15 19t10 24q29 28 43 39
q13 11 28 11h3q2 0 49.5 -3t111.5 -7t93 -6l125 124q33 34 74 34q27 0 40 -13q9 -9 12 -26.5t-5 -42t-28 -45.5zM731 544q-26 0 -48 -22l-124 -125l-12 -12l-17 1q-35 2 -148 10q-101 6 -106 6l-1 1q-1 0 -4 -3q-8 -7 -28 -25q97 -36 159 -59l55 -21l-41 -41l-75 -77
l-10 -11h-16h-12h-45h-27h-1q38 -24 78 -48l8 -5l4 -8q5 -7 44 -70q2 -3 3 -5v30v53v15l11 11l77 75l42 42l21 -56q25 -70 58 -158q17 19 24 28q3 3 3 6q0 4 -6 98q-6 98 -9 154l-1 17l12 12l124 125q12 12 18 25.5t4.5 21.5t-1.5 13q-5 2 -13 2z" />
    <glyph glyph-name="tuandui1" unicode="&#xe602;" 
d="M417 299q50 21 102 21t102 -21q31 25 49 62.5t18 81.5q0 74 -49.5 127t-119.5 53t-119.5 -53t-49.5 -127q0 -44 18 -81.5t49 -62.5zM734 201q32 14 66 14t66 -14q44 36 44 94q0 48 -32 82.5t-77.5 34.5t-78 -34.5t-32.5 -82.5q0 -58 44 -94zM970 43q0 73 -49 121.5
t-121 48.5q-24 0 -70 -22q-37 52 -92 81.5t-119 29.5q-65 0 -121 -32.5t-92 -87.5q-2 1 -9.5 5.5l-10 6t-9.5 5t-10.5 5t-10 4.5t-11 4t-10.5 2t-11 1q-71 0 -120.5 -49t-49.5 -123h203v0h536v0h177v0zM158 203q32 14 66 14t66 -14q44 35 44 94q0 48 -32 82.5t-77.5 34.5
t-78 -34.5t-32.5 -82.5q0 -59 44 -94z" />
    <glyph glyph-name="jiantou" unicode="&#xe601;" 
d="M376 279q-9 -9 -22.5 -9t-22.5 9v0q-9 9 -9 22.5t9 22.5l317 317q9 9 22.5 9t22.5 -9v0q9 -9 9 -22.5t-9 -22.5zM693 4q9 -9 9 -22.5t-9 -22.5v0q-9 -9 -22.5 -9t-22.5 9l-317 317q-9 9 -9 22.5t9 22.5v0q9 9 22.5 9t22.5 -9z" />
    <glyph glyph-name="weibiaoti101" unicode="&#xe745;" 
d="M384 674h-204q-23 0 -27.5 -6t-6.5 -12t-2 -21v-213q0 -11 2 -17t7 -11t23 -5h210q24 0 29 9.5t5 26.5v210q0 22 -7 30.5t-29 8.5zM397 589.5q-4 -4.5 -9 -4.5h-50v-133q0 -11 -1 -20t-8.5 -17.5t-27.5 -8.5q-34 0 -41 7t-8 12t1.5 10t10.5 7q5 0 14.5 -2t15.5 -3
q8 0 11.5 3.5t3.5 13.5v110q-12 -20 -32 -45q-21 -25 -56 -47.5t-46 -21.5q-9 1 -10.5 7t0.5 11q3 5 11 10l19 12q25 14 47 35.5t26 26.5l23 33h-116q-5 0 -9 4t-4 11q0 6 4 10t9 4h134v34q0 7 4 12t10 5t10.5 -5t4.5 -12v-34h50q5 0 9 -4t4 -10t-4 -10.5zM0 812v-1024
l1024 1024h-1024zM443 389q-4 -11 -13 -20t-34 -9h-233q-20 0 -30 8t-14 17.5t-4 21.5v238q0 13 3.5 23.5t9 17t17 11t24.5 4.5h231q10 0 23.5 -5t18.5 -18.5t5 -25.5v-238q0 -14 -4 -25z" />
    <glyph glyph-name="weixin01" unicode="&#xe61c;" 
d="M278 170q-14 0 -23 10q-14 16 -4 35l11 20q-61 57 -61 134q0 80 65 137t157 57q79 0 140.5 -44t77.5 -112l4 -20h-20q-78 0 -133 -48q-56 -48 -56 -117q0 -14 3 -28l4 -19h-20q-46 0 -88 16l-46 -19q-6 -2 -11 -2zM423 531q-78 0 -133.5 -47.5t-55.5 -114.5
q0 -69 59 -117l10 -9l-21 -38l53 20l6 -2q31 -12 64 -15q-1 6 -1 14q0 84 67 142q56 48 133 55q-19 49 -69 80.5t-112 31.5zM749 19q-24 0 -50 16q-36 -11 -74 -11q-54 0 -104 23.5t-83.5 70t-33.5 105t33.5 104.5t83.5 69.5t104.5 23.5t104.5 -23.5t83.5 -69.5t33.5 -105
q0 -68 -47 -122q14 -43 -13 -67q-16 -14 -38 -14zM704 71l7 -5q6 -3 14.5 -7t20.5 -6t19 5q7 5 7 15.5t-2 15.5t-3 8l-5 10l8 8q45 46 45 107q0 73 -58 119.5t-131 46.5t-131.5 -46.5t-58.5 -119.5t58.5 -119.5t131.5 -46.5q37 0 70 12zM499 469q-10 0 -17.5 -7.5t-7.5 -18
t7.5 -17.5t17.5 -7t17.5 7.5t7.5 17.5t-7.5 17.5t-17.5 7.5v0zM349 469q-10 0 -17.5 -7.5t-7.5 -18t7.5 -17.5t17.5 -7t17.5 7.5t7.5 17.5t-7.5 17.5t-17.5 7.5v0zM700 312q-11 0 -18 -7.5t-7 -17.5t7 -17.5t17.5 -7.5t18 7.5t7.5 17.5t-7.5 17.5t-17.5 7.5v0zM550 312
q-11 0 -18 -7.5t-7 -17.5t7 -17.5t17.5 -7.5t17.5 7.5t7 17.5t-7 17.5t-17 7.5v0z" />
    <glyph glyph-name="qq" unicode="&#xe67b;" 
d="M512 736q-91 0 -174 -35.5t-143 -95.5t-95.5 -143t-35.5 -174t35.5 -174t95.5 -143t143 -95.5t174 -35.5t174 35.5t143 95.5t95.5 143t35.5 174t-35.5 174t-95.5 143t-143 95.5t-174 35.5v0zM759 148q-9 -7 -22.5 0.5t-28.5 27.5q-12 -33 -32 -62q45 -16 45 -41
q0 -22 -34 -37.5t-82 -15.5q-58 0 -93 21q-34 -21 -93 -21q-48 0 -81.5 15.5t-33.5 37.5q0 25 44 41q-19 28 -32 62q-14 -20 -27.5 -27.5t-22.5 -0.5q-12 11 -8 45.5t21 71.5q9 17 18 31q2 109 64.5 185t150.5 76v0q88 0 150.5 -76t65.5 -185q9 -14 17 -31q17 -37 21.5 -71
t-7.5 -46v0z" />
    <glyph glyph-name="qq1" unicode="&#xe616;" 
d="M624 -17q-64 0 -102 28h-23q-38 -28 -101 -28q-57 0 -94 23t-37 57.5t37 57.5q-1 1 -1 2q-22 -16 -44 -9q-30 11 -36 58t10 94q13 41 46 77v7q0 27 14 52v1q0 90 64 154.5t154 64.5t154 -64.5t64 -154.5v0q14 -26 14 -53v-8q32 -35 45 -76q17 -47 11 -94t-37 -58
q-22 -7 -43 9q-1 -1 -1 -2q37 -23 37 -57.5t-37 -57.5t-94 -23zM527 43q6 0 11 -3q28 -25 86 -25q41 0 70 14t29 35q0 22 -36 36q-7 4 -9 11.5t3 13.5q11 14 20 31q4 7 12.5 8t13.5 -6q15 -17 25 -13q13 4 15.5 37t-10.5 74q-11 38 -43 70q-5 5 -4 13q1 6 1 11q0 20 -12 40
q-3 4 -3 10q1 1 1 3q0 77 -54.5 132t-131.5 55t-131.5 -55t-54.5 -132v-4q1 -5 -2 -9q-12 -20 -12 -40q0 -5 1 -10q1 -8 -5 -14q-31 -32 -43 -70q-12 -41 -10 -74t15 -37q11 -4 25 13q6 7 14.5 6t12.5 -8q8 -16 20 -31q5 -6 3 -13.5t-10 -10.5q-35 -15 -35 -37q0 -21 29 -35
t70 -14q57 0 86 25q5 4 11 3q16 -1 31 0h1z" />
    <glyph glyph-name="logo-wechat" unicode="&#xe61a;" horiz-adv-x="1025" 
d="M571 384q-8 0 -14 -6t-6 -15q0 -7 6 -13t14 -6q11 0 18.5 6t7.5 13q0 9 -7.5 15t-18.5 6v0v0v0zM504 483q12 0 19 7t7 19t-7 18.5t-19 6.5t-21 -7t-9 -18q0 -12 9 -19t21 -7v0v0v0zM512 832q-91 0 -174 -35.5t-143 -95.5t-95.5 -143t-35.5 -174t35.5 -174t95.5 -143
t143 -95.5t174 -35.5t174 35.5t143 95.5t95.5 143t35.5 174t-35.5 174t-95.5 143t-143 95.5t-174 35.5v0v0v0zM427 271q-31 0 -72 11l-74 -37l21 63q-82 58 -82 139q0 73 60.5 124t146.5 51q76 0 135.5 -41t72.5 -104q-11 2 -20 2q-73 0 -124 -48t-51 -116q0 -20 5 -44h-18
v0v0v0zM732 199l14 -52l-55 31q-53 -11 -63 -11q-73 0 -124 44t-51 106.5t51 106.5t124 44q70 0 123 -44.5t53 -106.5q0 -65 -72 -118v0v0v0zM359 534q-12 0 -21.5 -7t-9.5 -18t9.5 -18.5t21.5 -7.5q11 0 19 7t8 19q0 11 -7.5 18t-19.5 7v0v0v0zM686 384q-9 0 -15 -6t-6 -15
q0 -7 6 -13t15 -6q10 0 17.5 6t7.5 13q0 9 -7.5 15t-17.5 6v0v0v0zM686 384z" />
    <glyph glyph-name="shangchengicon21" unicode="&#xe619;" 
d="M963 370l-385 419v0q-27 27 -64 27q-42 0 -70 -33l-384 -413q-9 -8 -9 -21t9 -21q8 -9 20.5 -9t21.5 9v0l380 413q10 11 26 11t27 -11l380 -414v0q9 -8 22 -8q15 0 23.5 8.5t9.5 20.5q2 13 -7 22zM845 338q-11 0 -19.5 -9t-8.5 -20v-277q0 -22 -23 -22h-119q-22 0 -22 22
v226q0 33 -23.5 56.5t-56.5 23.5h-130q-32 0 -55.5 -23.5t-23.5 -56.5v-226q0 -22 -23 -22h-113q-22 0 -22 22v277q0 11 -9 20t-20 9t-20 -9t-9 -20v-277q0 -32 24 -56t56 -24h119q32 0 56 24t24 56v226q0 23 22 23h124q23 0 23 -23v-226q0 -32 23.5 -56t55.5 -24h119
q33 0 56.5 24t23.5 56v277q0 11 -9 20t-20 9z" />
    <glyph glyph-name="hollow" unicode="&#xe625;" 
d="M172 -98q136 60 147 64q32 13 49.5 32.5t19.5 52.5q1 15 9 41.5t10 32.5q2 8 3.5 23t1.5 20q2 13 7 17q21 18 19 47q0 4 -1 16t-1 17.5t1 15t3 17.5q7 18 -15 26q-5 2 -10 9t-5 13q-1 5 4 48q-22 7 -45 15q-2 -4 -2 -5q-2 -2 -8 -11q-5 11 -6 13q-6 15 -7 16q-3 4 -27 34
q-4 -23 14 -80.5t38 -85.5q-1 -2 -2 -3q-9 6 -9 7q-35 65 -46 122q-1 4 -1 22v22q0 1 -4 21q-19 -16 -23 -18q-1 10 -1 15q-1 0 -1.5 0.5t-1.5 0.5q-7 -17 -22.5 -51t-23.5 -51q-3 1 -4 1q13 36 14 38t36 83q1 2 8 18t11 25q7 14 -7 19l6 8q-1 5 -2.5 15t-2.5 15q0 6 6 16
q2 3 7 9.5t6 9.5q6 11 -2 19q-12 13 -11.5 40t13.5 39q6 5 21 9q25 7 48 29q29 28 50 39q13 7 41 4q8 -1 13 -19q6 -20 25 -10q15 8 35 10q16 1 21 16q1 1 2 3q13 38 33 48q23 11 47.5 -1.5t26.5 -37.5q4 -35 19 -50l3 -12q-4 0 -21.5 -3.5l-27.5 -5.5q-10 -12 -4 -41
q19 -88 14 -157q0 -8 -5 -21.5t-6 -17.5q0 -1 3 -15q3 -12 3 -14q-2 -43 31 -79q11 -12 11.5 -27.5t-10.5 -26.5q-5 -6 -3 -14q16 -63 26 -94q7 -25 -8 -42q-2 -1 -22 -34q113 28 206 51v-44q-124 -28 -131 -30q-110 -29 -231 -112q-126 -86 -203 -122q-17 -8 -35 -8
q-14 -1 -114 -1zM485 65q53 28 87 61q2 1 3 5q28 67 31 74q10 30 -9 45q-4 3 -9.5 11.5t-8.5 11.5t-34 33q-7 -29 -7 -30q1 -83 -42 -152q-4 -5 -6 -10.5t-3 -12t-1.5 -11t-0.5 -13.5v-12z" />
    <glyph glyph-name="weibiaoti201" unicode="&#xe628;" 
d="M640 606q-65 0 -110 -46l-18 -19l-18 19q-46 46 -110 46t-109 -45t-45 -109q0 -67 44 -109l238 -238l238 237q44 43 44 110q0 64 -45 109t-109 45zM512 896q-139 0 -257 -68.5t-186.5 -186.5t-68.5 -257t68.5 -257t186.5 -186.5t257 -68.5t257 68.5t186.5 186.5t68.5 257
t-68.5 257t-186.5 186.5t-257 68.5zM786 306l-274 -274l-274 274q-59 58 -59 146q0 85 60 145t145 60q72 0 128 -45q56 45 128 45q85 0 145 -60t60 -145q0 -88 -59 -146z" />
    <glyph glyph-name="tuandui2" unicode="&#xe609;" 
d="M630 409q34 27 54 66t20 83q0 79 -56.5 135t-135.5 56t-135 -56t-56 -135q0 -44 19.5 -83t53.5 -66q-89 -36 -145 -116t-56 -179v-63q0 -13 9.5 -22.5t22.5 -9.5h574q14 0 23 9.5t9 22.5v63q0 99 -55.5 179t-145.5 116v0v0v0zM374 559q0 57 40.5 97t98 40t98 -40
t40.5 -97t-40.5 -97.5t-98 -40.5t-98 40.5t-40.5 97.5v0v0v0zM783 71h-542v34q0 111 79.5 190t191.5 79t191.5 -79t79.5 -190v-34v0v0v0zM265 379l6 2q23 8 23 30q0 21 -22 29q-25 12 -40.5 35.5t-15.5 51.5q0 30 22.5 55t52.5 35q10 31 30 56q4 6 7 11q-1 0 -3.5 0.5
t-3.5 0.5q-66 0 -113 -46.5t-47 -111.5q0 -61 42 -107q-63 -32 -100.5 -92.5t-37.5 -132.5v-49q0 -13 9.5 -22.5t22.5 -9.5h57q0 25 7 57h-41v24q0 66 40.5 117t104.5 67v0v0v0zM821 420q42 46 42 107q0 65 -47 111.5t-113 46.5h-3.5t-3.5 -1q4 -5 7 -10q20 -26 30 -57
q31 -10 55.5 -35.5t24.5 -54.5q0 -28 -15 -51.5t-41 -35.5q-22 -8 -22 -29q0 -22 23 -30l7 -2q63 -16 103.5 -67t40.5 -117v-24h-46q7 -32 7 -57h57q13 0 22.5 9.5t9.5 22.5v49q0 72 -37.5 132.5t-100.5 92.5v0v0v0zM821 420z" />
    <glyph glyph-name="weixin" unicode="&#xe62a;" 
d="M512 -66zM890 109q67 61 67 143q0 71 -51.5 127.5t-131.5 77.5q-4 76 -51.5 139.5t-128 100t-174.5 36.5q-96 0 -177.5 -38t-129 -104t-47.5 -143q0 -108 89 -189q9 -7 6 -23.5t-12 -34t-22 -36.5q69 19 126 19q28 0 50 -6q57 -16 117 -16q11 0 24 1q32 -57 98 -92
t146 -35q46 0 89 12q17 4 38 4q43 0 96 -15q-39 56 -21 72v0zM420 214q-53 0 -103 14l-1 1h-1q-27 7 -62 7q-19 0 -40 -2q4 39 -23 63q-35 32 -53.5 70.5t-18.5 80.5q0 93 85 161q41 34 96 52q58 20 121 20t121 -20q55 -18 96 -52q75 -60 84 -142v0q-17 2 -33 2
q-111 0 -189.5 -63.5t-78.5 -153.5q0 -19 4 -37v0l-4 -1v0zM854 147q-19 -17 -21 -44q-9 1 -18 1q-28 0 -50 -6h-1h-1q-36 -10 -75 -10q-46 0 -87 14q-40 13 -70 38q-59 47 -59 112t59 113q30 24 70 37q41 14 87 14t88 -14q39 -13 69 -37q60 -48 60 -113q0 -29 -13 -55
q-13 -27 -38 -50v0zM854 147zM265 503q0 23 12.5 39t30 16t29.5 -16t12 -39t-12 -39t-29.5 -16t-30 16t-12.5 38v1zM265 503zM485 503q0 23 12.5 39t30 16t29.5 -16t12 -39t-12 -39t-29.5 -16t-30 16t-12.5 38v1zM485 503zM582 292q0 18 9.5 30t23 12t23 -12.5t9.5 -30
t-9.5 -30t-23 -12.5t-23 12.5t-9.5 29.5v1zM582 292zM739 292q0 18 9.5 30t23 12t23 -12.5t9.5 -30t-9.5 -30t-23 -12.5t-23 12.5t-9.5 29.5v1zM739 292z" />
    <glyph glyph-name="yundong66" unicode="&#xe74e;" 
d="M412 302l-7 7t-6.5 7t-6.5 6t-8 5.5l-8 4t-10 3t-11 0.5q-50 -2 -159 0q-36 1 -36 -24q1 -25 37 -24h97v1h107q24 0 11 14zM195 474q9 0 31 0.5t38 0.5t31 -2q59 -6 97 48h-198q-34 0 -33 -23q1 -24 34 -24zM185 385h63v0h56q1 0 10 -1t12.5 2t3.5 11q0 29 -20 31
q-69 9 -131 0q-9 -1 -15 -7.5t-4 -16.5q6 -20 25 -19zM861 488q-5 12 -14.5 17.5t-17 5.5t-20 -1.5t-19.5 -1.5q-9 1 -23.5 -5t-23 -8t-21.5 5q-19 17 -35 64q-6 17 -27 45t-26 36q33 -13 58.5 -10.5t41.5 13t27 27.5q17 27 13 59t-27 54q-23 21 -54.5 24t-57.5 -14
q-33 -22 -37.5 -53t17.5 -86q-28 9 -72.5 29.5t-56.5 24.5q-5 2 -12.5 6.5t-12.5 7t-13 4t-14 -1.5q-92 -38 -152 -67q-45 -22 -24 -60q7 -15 25 -19t38 5q48 21 67 31q55 30 104 -5q17 -13 16.5 -21t-13.5 -21q-8 -8 -28 -26t-31 -28.5t-26 -27t-27 -31.5q-37 -50 6 -91
q20 -19 57.5 -52.5t49.5 -45.5q5 -4 7.5 -7t3.5 -7t-3 -6.5t-14 -4.5q-18 -3 -53 -11t-49 -11q-19 -4 -32 -19t-10 -30q4 -18 23 -28.5t38 -5.5q128 30 205 46q26 6 36 28t-6 43l-28 36t-32 42q-13 19 -18.5 26.5t-9.5 19.5t-4 15.5t6.5 14.5t13.5 18t24 23q24 23 31 22
t25 -31q0 -2 3.5 -8t5 -8t5 -6.5t6 -6.5t6.5 -4.5t8.5 -3t10.5 -0.5q51 4 148 31q14 3 19 20t-1 31zM605 173q-12 -9 -42.5 -12.5t-43.5 -10.5q-14 -8 -21 -19q-12 -18 -35.5 -55.5t-34.5 -55.5q-21 -32 9 -54q14 -11 30.5 -10t27.5 16q37 51 127 177q14 21 -17 24z" />
    <glyph glyph-name="shamo" unicode="&#xe64e;" 
d="M96 704q-1 -1 -2 -3t-1.5 -7.5t1 -10t7.5 -8t17 -3.5q7 0 22.5 0.5t24.5 0.5t20 -1t17 -4.5t8 -9.5q4 -14 5.5 -34t-4.5 -53.5t-23 -64.5q-11 -21 -14 -48.5t7 -57.5t32 -54t67 -37t106 -7q3 0 7.5 -1.5t14 -10t12.5 -20.5q16 -71 9 -89q-6 -15 -2.5 -41.5t12.5 -45.5
q0 -6 1 -20t1 -22v-18.5t-2 -18t-5 -11.5q-10 -13 -10.5 -27.5t10.5 -21.5q9 -6 5.5 -10t-14.5 -7q-18 -3 -30 -17q-5 -7 0 -8q8 -4 41 -2.5t43 9.5q5 9 2 12.5t-10 17t-8 28.5q-4 109 -1 118q1 3 3 12.5t4 17t5 16t6.5 13t7.5 3.5q9 -3 12 -19.5t-3 -26.5q-14 -24 19 -72
q9 -17 11 -53.5t-2 -37.5q-1 -2 -9.5 -8t-13.5 -12.5t-1 -12.5q7 -11 49 -7q22 2 21 8q0 1 -1 2t-4.5 4t-4 3.5l-3 3t-2.5 3.5t-0.5 3t0.5 3.5t2.5 3.5t3.5 4q3 3 4 7.5t0 11t-2 12t-4.5 14.5t-5.5 15t-6.5 17t-5.5 16q-8 20 -7 43t-2 46q-14 69 12 69q7 0 10 -6.5t3.5 -14
t4 -15t11.5 -8.5q11 -2 43 2.5t48 2.5q12 -2 25 0t23.5 6t17 17.5t6.5 34.5q0 2 1 4.5t5.5 5.5t10.5 -6q3 -4 9.5 -25.5t22.5 -51t43 -55.5q1 -1 1.5 -4.5t1 -4.5t1 -3.5t0 -4t-1 -3.5t-1.5 -4t-3 -3q-7 -6 -4 -23t12 -24q4 -6 1.5 -20t-16.5 -29.5t-32 -19.5
q-15 -8 -15 -37q-3 -2 -7 -5t-11 -8.5t-3.5 -9.5t18.5 -4q6 0 14.5 -0.5t13 -0.5t11 0.5t9 1l7.5 1.5t5.5 2.5t3.5 4t2 6t0 8.5q-1 15 -1 18t3.5 5t3.5 3q9 11 2 36q-5 14 5 22.5t11 16.5q1 2 3 4.5t5.5 11t5.5 16t2 16.5t-4 17q15 7 28 -17q8 -20 1 -46t-19 -38
q-10 -10 -13 -22.5t4 -22.5q6 -6 -2.5 -12t-4.5 -11q6 -9 27.5 -12.5t31.5 8.5q5 9 -5.5 19t-2.5 19q4 4 5.5 8.5t2 7.5t-1 8.5t-2.5 7.5t-3.5 8t-3.5 7q-2 6 2.5 22t7 30t-6.5 29q-42 53 -44 94q-3 72 -13 90q-7 14 4 32q8 12 17 3q2 -5 6.5 -11.5t6.5 -14t1 -21.5
q-1 -25 5.5 -38t24.5 -13q13 0 0 14q-23 28 -22 39q0 14 -10.5 38t-10.5 27q3 18 0 68q-1 18 -9.5 28.5t-17.5 10.5q-8 1 -20 24q-35 64 -68 103q-11 13 -17.5 33t-3 44.5t22.5 40.5l-6 2q-18 -4 -49 -59q-9 -17 -24 -24.5t-26.5 -1t-11.5 26.5v7q6 149 -40 170
q-9 1 -20.5 -2t-16.5 1q-7 3 -11.5 11.5t-4.5 16.5t4 9q2 1 6.5 2t8 2t9 2.5t9 3.5t7 5t2.5 6.5t-3 8.5l-3 25q1 4 -7.5 9t-23 6t-34.5 -9q-3 -4 -3.5 -9t-0.5 -7.5t-2 -5t-7 -3.5q-12 -2 -16.5 -11.5t5.5 -19.5q1 -5 0.5 -13t1 -13.5t5.5 -2.5q9 4 24 -12t4 -28
q-6 -8 -26 -47t-27 -43l-48 1v-24q-3 -1 -8 -1.5t-19 0t-27 3.5t-27.5 11.5t-23.5 21.5l-6 -4q1 -2 3 -4t9 -7.5t14 -10t18 -9t22.5 -7t26 -1t28.5 7.5h32q-3 -4 -7 -10.5t-9.5 -20.5t-2.5 -22q4 -10 -3 -27.5t-31.5 -36t-61.5 -23.5q-61 -12 -84 -2t-22 58q1 21 1 38
t0.5 30.5t2 23t6.5 14.5t13 5q11 0 12 3t-3 9t-4.5 15t6.5 20q16 24 10 32t-28 -12q-8 -7 -11 -8.5t-3 1t-1.5 7t-3.5 10t-10.5 10t-22.5 5.5q-11 13 -21 0q-3 -2 -6.5 -8t-5 -6.5t-6.5 -0.5t-13 4q-2 1 -12 5.5t-14.5 6.5t-14 4.5t-16.5 2.5t-16 -2t-17 -7q-12 -7 -13 -15
t5 -14t11.5 -12t5.5 -8z" />
    <glyph glyph-name="tuandui0201" unicode="&#xe60c;" 
d="M512 404q24 0 41 20q6 7 -1 12q-6 7 -12 -1q-11 -13 -27 -13q-17 0 -27 13q-7 7 -12 1q-7 -6 -1 -12q15 -20 39 -20zM512 856q-96 0 -182.5 -37t-149.5 -100t-100 -150t-37 -182.5t37 -182.5t100 -149.5t149.5 -100t182.5 -37.5t182.5 37.5t149.5 100t100 149.5t37 182.5
t-37 182.5t-100 150t-149.5 100t-182.5 37zM649 540q35 0 60 -25t25 -60q0 -33 -22.5 -57.5t-55.5 -28.5q-13 16 -32 31l-4 4q23 34 23 74q0 32 -15 60q10 2 21 2zM512 591q47 0 80 -33t33 -80t-33 -80.5t-80 -33.5t-80 33.5t-33 80.5t33 80t80 33zM375 540q11 0 21 -2
q-15 -28 -15 -60q0 -40 23 -74l-4 -3q-19 -15 -32 -31q-33 4 -55.5 28t-22.5 58q0 35 25 59.5t60 24.5zM249 267q-2 12 -2 18q0 64 53 102q23 -26 57 -32q-33 -47 -33 -105q0 -8 1 -12q-43 9 -76 29zM681 227q-77 -45 -169 -45q-91 0 -169 44q-2 15 -2 24q0 41 18.5 77
t50.5 60q34 -38 85 -45l-16 -88q-2 -5 2 -7l25 -25q6 -6 12 0l25 25q2 2 2 7l-16 88q51 7 85 45q31 -24 50 -60t19 -77q0 -8 -2 -23zM775 267q-35 -20 -76 -28q0 2 0.5 6t0.5 6q0 58 -32 104q33 6 57 32q52 -38 52 -102q-1 -10 -2 -18z" />
    <glyph glyph-name="lvhang" unicode="&#xe6fe;" 
d="M614 432q-8 0 -13.5 -5.5t-5.5 -13.5v-194q0 -8 5.5 -13.5t13.5 -5.5t13.5 5.5t5.5 13.5v194v0q0 8 -5.5 13.5t-13.5 5.5zM408 432q-8 0 -13.5 -5.5t-5.5 -13.5v0v-194v0q0 -8 5.5 -14t13.5 -6t13.5 6t5.5 14v0v194v0q0 8 -5.5 13.5t-13.5 5.5v0zM512 896
q-104 0 -199 -40.5t-163.5 -109t-109 -163t-40.5 -199t40.5 -199t109 -163t163.5 -109t199 -40.5t198.5 40.5t163 109t109 163t40.5 199t-40.5 199t-109 163t-163 109t-198.5 40.5zM367 623q0 35 24.5 59.5t58.5 24.5h123q34 0 58.5 -24.5t24.5 -59.5v-21h-38v21
q0 19 -13.5 32t-31.5 13h-123q-18 0 -31.5 -13t-13.5 -32v-21h-38v21zM749 189q0 -37 -26 -63t-62 -26h-14v-5q0 -11 -7.5 -18.5t-18.5 -7.5t-18.5 7.5t-7.5 18.5v5h-167v-5q0 -11 -8 -18t-18 -7t-18 7t-8 18v5h-14q-36 0 -62 26t-26 63v253q0 37 26 63t62 26h5v46h38v-46
h213v46h38v-46h5q36 0 62 -26t26 -63v-253z" />
    <glyph glyph-name="qinziyou" unicode="&#xe6e5;" 
d="M512 832q-122 0 -225 -60t-163 -163t-60 -225t60 -225t163 -163t225 -60t225 60t163 163t60 225t-60 225t-163 163t-225 60zM643 421q19 4 35 -7t20 -30t-6.5 -35.5t-29.5 -19.5q-19 -4 -38.5 6t-23.5 28q-4 19 10 37t33 21zM442 632q25 -2 41.5 -21.5t12.5 -43.5
q-5 -30 -21.5 -45t-40.5 -12q-25 4 -42 23t-14 43q2 26 20.5 42.5t43.5 13.5zM547 153q-3 0 -7 1t-6 2l-2 1q-7 3 -13 6.5t-14 10.5t-12 11l-16.5 16.5l-17.5 17.5q-23 23 -41 24t-23 -23v-5q0 -41 2 -57q1 -7 -5.5 -9t-10.5 3q-22 29 -38.5 88t-13.5 138q0 26 -31 2
q-20 -16 -49 -51q-14 -18 -19 -6q-5 14 13 53l7.5 12.5t20.5 27.5t34.5 35t49 26.5t63.5 11.5q96 -9 153 -124q5 -9 6 -13q2 -7 -5 -8t-14 6q-4 3 -16 14t-19.5 16.5t-18 9t-18 -5t-12.5 -29.5q-6 -44 9 -84t67 -105q3 -3 2.5 -8t-5.5 -5zM793 340q-7 -13 -47 -40
q-19 -13 -23 -35q-2 -12 8 -50q9 -37 2 -55q-2 -5 -6 -5.5t-6 3.5q-6 13 -9 19t-12 14t-22 11q-36 2 -37 -42q0 -5 -5 -6.5t-9 2.5q-13 13 -19 47q-2 13 -2 28.5t-1.5 22.5t-7.5 12q-2 2 -34 13t-44 25q-2 2 -2 4q0 7 7 7q7 1 52 -2.5t88 1.5q24 3 47 11t45 18t27 12
q6 2 10 -3t0 -12z" />
    <glyph glyph-name="midu-lvxing" unicode="&#xe624;" 
d="M512 -128q-139 0 -257 68.5t-186.5 186.5t-68.5 257t68.5 257t186.5 186.5t257 68.5t257 -68.5t186.5 -186.5t68.5 -257t-68.5 -257t-186.5 -186.5t-257 -68.5zM859 623q-28 43 -65 70q-71 53 -151 46l-12 -2l-1 -1.5t-2 -4.5t-1 -5.5t1 -4.5q-150 62 -232 -79
q-28 -48 -44 -115q-14 -54 -16 -115q2 19 3 32v1q-1 -13 -1 -23q1 15 6.5 22t12 11t8.5 9q21 57 50 96q24 33 52 50q0 -3 -1 -7q-17 -116 60 -217l20 -24q7 -8 15.5 -2.5t5.5 15.5v0v0v0l-1 2q-14 40 -16 85v-14q-2 13 -3 42q-3 75 39 139v-1q-2 -42 4 -79q7 -38 23 -64
q5 -10 15 -6t8 15q-2 8 -2 18l-1 10q0 5 1 10q2 40 20 72v0l10 -6q24 -17 44 -43q-4 3 -9 3h-2q-10 -2 -10 -12v-2l1 -6q22 -126 23 -269l-3 92q1 -16 1 -35q-2 2 -5 2l-35 12q-2 1 -4 1q-9 0 -11 -9q-1 -2 -1 -4q0 -9 8 -12l37 -12q2 -1 4 -1q5 0 8 3v-3q1 -95 -14 -153
l-1 -1v-1v-1q-3 -4 -9 -7q-27 -13 -92 3h-3q-9 0 -12 -9q-3 -13 10 -15q73 -18 108 -1q21 10 23 28v-2q16 61 15 159q-1 74 -12 163q-18 146 -56 280l44 -198q0 3 -2 5q30 -41 47 -98q2 -9 12.5 -8.5t11.5 10.5v0v0v1v1v4q1 5 1 13v7q0 21 -2 41q-7 64 -36 115q37 -4 66 -15
q30 -12 52 -33l-11 8q0 -1 2 -3q2 -3 4 -5l-15 16v0v0v0q8 -8 16 -0.5t2 16.5zM641 373l38 5q13 2 11 14q-1 5 -5 8.5t-9 2.5l-33 -5q2 30 2 53v2q0 6 -4 9.5t-9 3t-8.5 -4t-3.5 -8.5v-2v-23q-1 -39 -6 -76q-2 -40 -20 -109q-3 -12 9 -15t15 9q2 8 5 18q2 -2 4 -2l48 -12h3
q9 0 12 9v3q0 10 -9 12l-50 13h-3v0q9 46 13 95zM862 58q-11 24 -39 53q-69 69 -162 95l78 -33v0q-7 0 -11 -6q-2 -3 -2 -7q0 -7 7 -11q79 -46 124 -123l-15 21q1 -1 3 -7q9 -20 13 -32q-29 57 -30 58h-623h1q10 14 24 28q108 108 287 108q38 0 73 -5q5 -1 9 2t5 8
q1 13 -11 14q-35 6 -75 6h-1q-153 0 -256 -74v1q0 6 -5 10q-28 19 -44 49t-16 65v0q0 57 40 97t96 40t96 -40t40 -97q0 -17 -4 -34q-1 -1 -1 -3q0 -5 3.5 -8.5t9.5 -3.5q9 0 11 9q5 20 5 40q0 67 -47 114.5t-113.5 47.5t-113.5 -47.5t-47 -114.5q0 -41 19 -76.5t52 -58.5
q2 -1 6 -2q-17 -11 -36 -29q-29 -29 -40 -54q-1 -2 -1 -5q0 -5 3.5 -8.5t9.5 -3.5h667q5 0 8.5 3.5t3.5 8.5q0 3 -1 5v0zM690 667q-5 0 -9 -3.5t-4 -9t4 -9t9 -3.5q12 0 22 -1q1 -3 4 -5q12 -20 24.5 -57.5t12.5 -48.5v-1q-30 58 -81 96l24 -20q-10 8 -18 13q-27 19 -59 25
l37 -12l-2 1v0v0v0v0q-2 1 -5 1q-6 0 -10 -6q-26 -38 -29 -85l3 22q-6 40 -1 87q1 7 2 12q0 3 1 3v1v0v0q1 9 -7 13.5t-14 -2.5q-76 -79 -71 -204q1 -24 5 -48q0 1 -1 1q-50 82 -37 172l3 12v3q0 4 -2 8q7 2 13 3q5 1 8 1v0q5 0 9 3.5t4 8.5v1q0 5 -3.5 8.5t-8.5 3.5h-1
q-16 0 -39 -10q-43 -19 -78 -66q-2 -3 -5 -7v0v0q12 35 28 62q81 138 238 49q11 -6 17 5q1 3 1 6q0 7 -6 11q-61 35 -133 46l110 -33q71 6 134 -41q13 -10 25 -22v0.5v0.5q-49 15 -114 15z" />
    <glyph glyph-name="qihang-copy" unicode="&#xe69b;" 
d="M247.5 398q-75.5 0 -129 -53t-53.5 -129t53.5 -129t129 -53t129 53t53.5 129t-53.5 129t-129 53zM247.5 69q-61.5 0 -104.5 43t-43 104t43 104t104.5 43t104.5 -43t43 -104t-43 -104t-104.5 -43zM768.5 398q-75.5 0 -129.5 -53t-54 -129t54 -129t129.5 -53t129 53
t53.5 129t-53.5 129t-129 53zM768.5 69q-61.5 0 -105 43t-43.5 104t43.5 104t105 43t104.5 -43t43 -104t-43 -104t-104.5 -43zM656 473q62 -9 137 13q25 8 23 13q-3 2 -78.5 7t-88.5 20q-8 9 -20.5 35.5t-27.5 47t-33 24.5q-35 9 -88 -17q-109 -56 -162 -134
q-10 -19 -3.5 -34.5t20 -23t34.5 -18t41.5 -19.5t41.5 -27.5t34 -42.5q20 -48 0 -136q-8 -32 -1 -33q2 0 6 3q13 8 24 47.5t16 84.5t2.5 86.5t-13.5 53.5q-20 19 -20 43t13 43t34 33q11 9 23 0.5t19.5 -22t25.5 -28.5t41 -19zM566 714q0 -1 -0.5 -4t-0.5 -4q0 -28 20 -48
t48 -20t48 20t20 48q0 12 -5 24v1l-2 2q0 2 -4 10q-1 1 -2 1q-1 1 -2 3t-2 3l-1 1l-1 1l-2 2q-1 1 -2.5 2t-3 2.5l-2.5 2.5l-0.5 0.5t-1.5 0.5q-2 2 -8 5l-3 1l-9 3q-1 0 -3 0.5t-3 0.5q-27 5 -56.5 -4t-49.5 -21q-4 -2 -4 -7t3 -7z" />
    <glyph glyph-name="qihang" unicode="&#xe6d2;" 
d="M341 359l9 9l200 159v0q2 1 3 2l11 10l164 -283q4 -7 13 -7q4 0 7 2q13 7 6 20l-242 417q-3 5 -6 6.5t-14 1.5h-128q-8 0 -13 -5t-5 -12.5t5 -12.5t13 -5h118h3v0l7 1l56 -96l-10 -7l-2 -2h-1l-199 -158l-13 -9l-75 134h37q8 0 13 5t5 12t-5 12.5t-13 5.5h-118
q-8 0 -13 -5.5t-5 -12.5t5 -12t13 -5h49l160 -288q4 -7 12 -7q3 0 6 2q13 8 5 22zM740 499h-1v0v0v0l-1 -1q-7 0 -12 -5t-5 -12q0 -14 14 -17h1q69 -7 115.5 -58t46.5 -120q0 -74 -52.5 -126t-126.5 -52t-126.5 52t-52.5 126q0 44 20 82v0q3 5 3 9q0 8 -5 13t-13 5
q-12 0 -17 -12v0v-1q-23 -45 -23 -96q0 -88 63 -151t151.5 -63t151.5 63t63 151q0 83 -56 144t-138 69zM360.5 151q-7.5 0 -12.5 -5h-1q-38 -38 -91.5 -38t-91.5 38t-38 91q0 37 19 67.5t51 47.5v0v0q10 5 10 16q0 7 -5 12.5t-13 5.5q-4 0 -8 -3v0q-41 -21 -65.5 -60.5
t-24.5 -85.5q0 -68 48.5 -116.5t117.5 -48.5q68 0 116 48l1 1l0.5 0.5l1.5 1.5h-1q4 5 4 10q0 8 -5 13t-12.5 5z" />
    <glyph glyph-name="qihang1" unicode="&#xe6d3;" 
d="M512 825q-120 0 -221.5 -59t-160.5 -160.5t-59 -221.5t59 -221.5t160.5 -160.5t221.5 -59t221.5 59t160.5 160.5t59 221.5t-59 221.5t-160.5 160.5t-221.5 59zM424 217l-0.5 -0.5l-0.5 -0.5l-1 -1q-31 -31 -74 -31q-44 0 -75 31t-31 75q0 29 15.5 54.5t41.5 39.5v-1
q3 2 6 2q5 0 8 -3.5t3 -7.5q0 -7 -6 -10l-1 -1q-20 -10 -32 -30t-12 -43q0 -34 24 -58.5t58.5 -24.5t59.5 24v0q3 4 8 4t8 -3.5t3 -7.5t-2 -7v0zM437 286q-2 -1 -5 -1q-4 0 -7 5l-102 184h-32q-5 0 -8 3t-3 7.5t3 8t8 3.5h76q5 0 8 -3.5t3 -8t-3 -7.5t-8 -3h-24l48 -86l8 5
l128 102v0q1 1 2 1l6 5l-36 61h-4h-1l-1 -1h-76q-5 0 -8 3.5t-3 8t3 8t8 3.5h82q10 0 13 -5l155 -267q4 -9 -4 -13q-2 -2 -5 -2q-5 0 -8 5l-105 181l-7 -6q0 -1 -1 -1l-1 -1l-128 -102l-6 -5l38 -68q5 -9 -3 -14zM645 184q-57 0 -97.5 40.5t-40.5 96.5q0 33 15 62v0.5v0.5
q3 7 11 7q5 0 8.5 -3.5t3.5 -7.5q0 -3 -2 -6v0q-13 -25 -13 -53q0 -47 33.5 -80.5t81 -33.5t81 33.5t33.5 80.5q0 45 -30 77.5t-74 36.5v0q-9 2 -9 11q0 10 10 11h1v0v0h1v0q52 -4 88 -43.5t36 -92.5q0 -56 -40 -96.5t-97 -40.5z" />
    <glyph glyph-name="xiangqinhuichang" unicode="&#xe679;" 
d="M467 -124h205q11 0 17 2h-239q4 -2 17 -2zM732 4l102 11l49 117l-96 9zM655 -75l130 303l-461 5l126 -308h205zM446 416q4 22 13 46t16 36.5t21 37t16 27.5q33 57 52 106.5t21 70.5l2 22v6.5t-1 17.5t-3.5 25t-10 27t-18.5 26t-29.5 19.5t-42.5 10.5q-33 2 -59.5 -10.5
t-41.5 -32t-25 -39.5t-13 -34l-4 -14q-13 15 -31.5 30t-50 29t-59.5 9q-35 -7 -61 -31t-33.5 -62t20.5 -86q52 -79 202 -169zM858 608q-27 6 -54 -10.5t-40 -32.5q-1 4 -2.5 10.5t-8.5 22.5t-16 28t-27 21t-40 8t-37.5 -10.5t-22 -22t-10 -25t-3.5 -21.5v-9q0 -5 1 -15
t12.5 -45t33.5 -74q1 -1 11 -18.5t14 -25.5t10 -24.5t8 -31.5q43 23 81 45q101 54 137 108q18 33 14 58.5t-21 42.5t-40 21zM439 -126h237q17 9 22 17h-280q11 -14 21 -17z" />
    <glyph glyph-name="qihang2" unicode="&#xe61d;" 
d="M510.5 831q-91.5 0 -174 -35t-142.5 -95t-95.5 -143t-35.5 -174t35.5 -174t95.5 -143t142.5 -95.5t174 -35.5t174 35.5t142.5 95.5t95.5 143t35.5 174t-35.5 174t-95.5 143t-142.5 95t-174 35zM510.5 -49q-117.5 0 -217 58t-157.5 157.5t-58 217t58 217.5t157.5 157.5
t217 57.5t217 -57.5t157.5 -157.5t58 -217.5t-58 -217t-157.5 -157.5t-217 -58zM686 462q-26 0 -50 -11l-25 43v0.5v1.5v44l37 26q8 5 2 13t-14 2l-40 -28v-1v0q-1 -1 -2 -1q0 -1 -1 -2v-2l-1 -2v0v0v-45h-138v17h24q10 0 10 9.5t-10 9.5h-110q-10 0 -10 -9.5t10 -9.5h67
v-17h-1q-1 0 -2 -1q-6 0 -9 -6l-22 -42q-23 11 -48 11q-47 0 -80.5 -33.5t-33.5 -80.5t33.5 -80.5t80.5 -33.5q44 0 76.5 30.5t36.5 74.5h47h1h1v0q2 0 3 1l1 1t2 1v1v0l81 129l18 -31q-48 -34 -48 -93q0 -47 33.5 -80t80.5 -33t80 33t33 80t-33 80.5t-80 33.5zM438 481h147
l-77 -123h-42q-4 53 -48 84zM448 358h-74l36 68q34 -26 38 -68zM353 252q-40 0 -68 28t-28 68t28 68t68 28q21 0 40 -9l-42 -81l-0.5 -1l-0.5 -1v-1v-2l-0.5 -0.5l-0.5 -0.5l1 -2v0v0q0 -1 1 -2.5t1 -2t1 -0.5l0.5 -0.5l0.5 -0.5h1q2 -1 4 -1h90q-4 -37 -31.5 -62t-64.5 -25
zM685.5 252q-39.5 0 -68 28t-28.5 68q0 49 40 78l45 -77q4 -8 12.5 -3t4.5 12l-46 78q19 8 41 8q39 0 67.5 -28t28.5 -67.5t-28.5 -68t-68 -28.5z" />
  </font>
</defs>
</svg>
